<mxfile host="app.diagrams.net" modified="2023-10-08T07:12:56.066Z" agent="Mozilla/5.0 (Windows NT 10.0; Win64; x64) AppleWebKit/537.36 (KHTML, like Gecko) Chrome/117.0.0.0 Safari/537.36" etag="U6ztUBsKh7DoMgrVukcF" version="22.0.4" type="github">
  <diagram name="Page-1" id="Edo82u8HenHKRPctLf0t">
    <mxGraphModel dx="893" dy="470" grid="1" gridSize="10" guides="1" tooltips="1" connect="1" arrows="1" fold="1" page="1" pageScale="1" pageWidth="1169" pageHeight="827" math="0" shadow="0">
      <root>
        <mxCell id="0" />
        <mxCell id="1" parent="0" />
        <mxCell id="dz99NOGH4aD-8nIKo7Ok-22" value="" style="rounded=0;whiteSpace=wrap;html=1;sketch=1;hachureGap=4;jiggle=2;curveFitting=1;fontFamily=Architects Daughter;fontSource=https%3A%2F%2Ffonts.googleapis.com%2Fcss%3Ffamily%3DArchitects%2BDaughter;fontSize=20;fillColor=#647687;movable=1;resizable=1;rotatable=1;deletable=1;editable=1;locked=0;connectable=1;strokeColor=#314354;fontColor=#ffffff;fillStyle=solid;" vertex="1" parent="1">
          <mxGeometry x="1195" y="454.5" width="150" height="161" as="geometry" />
        </mxCell>
        <mxCell id="dz99NOGH4aD-8nIKo7Ok-19" value="" style="rounded=0;whiteSpace=wrap;html=1;sketch=1;hachureGap=4;jiggle=2;curveFitting=1;fontFamily=Architects Daughter;fontSource=https%3A%2F%2Ffonts.googleapis.com%2Fcss%3Ffamily%3DArchitects%2BDaughter;fontSize=20;fillColor=#f5f5f5;movable=1;resizable=1;rotatable=1;deletable=1;editable=1;locked=0;connectable=1;strokeColor=#666666;fontColor=#333333;fillStyle=auto;" vertex="1" parent="1">
          <mxGeometry x="1210" y="470" width="120" height="130" as="geometry" />
        </mxCell>
        <object label="" id="v9pG0wg58woj9QDLIAWf-1">
          <mxCell style="rounded=0;whiteSpace=wrap;html=1;sketch=1;hachureGap=4;jiggle=2;curveFitting=1;fontFamily=Architects Daughter;fontSource=https%3A%2F%2Ffonts.googleapis.com%2Fcss%3Ffamily%3DArchitects%2BDaughter;fontSize=20;fillColor=#f8cecc;strokeColor=#b85450;" parent="1" vertex="1">
            <mxGeometry x="310" y="240" width="620" height="60" as="geometry" />
          </mxCell>
        </object>
        <mxCell id="v9pG0wg58woj9QDLIAWf-11" style="edgeStyle=orthogonalEdgeStyle;rounded=0;sketch=1;hachureGap=4;jiggle=2;curveFitting=1;orthogonalLoop=1;jettySize=auto;html=1;exitX=0;exitY=0.5;exitDx=0;exitDy=0;entryX=-0.001;entryY=0.611;entryDx=0;entryDy=0;entryPerimeter=0;fontFamily=Architects Daughter;fontSource=https%3A%2F%2Ffonts.googleapis.com%2Fcss%3Ffamily%3DArchitects%2BDaughter;fontSize=16;" parent="1" source="v9pG0wg58woj9QDLIAWf-9" target="v9pG0wg58woj9QDLIAWf-1" edge="1">
          <mxGeometry relative="1" as="geometry" />
        </mxCell>
        <object label="" id="v9pG0wg58woj9QDLIAWf-12">
          <mxCell style="rounded=0;whiteSpace=wrap;html=1;sketch=1;hachureGap=4;jiggle=2;curveFitting=1;fontFamily=Architects Daughter;fontSource=https%3A%2F%2Ffonts.googleapis.com%2Fcss%3Ffamily%3DArchitects%2BDaughter;fontSize=20;fillColor=#1ba1e2;strokeColor=#006EAF;fontColor=#ffffff;" parent="1" vertex="1">
            <mxGeometry x="317.5" y="247" width="602.5" height="45" as="geometry" />
          </mxCell>
        </object>
        <mxCell id="v9pG0wg58woj9QDLIAWf-16" style="edgeStyle=orthogonalEdgeStyle;rounded=0;sketch=1;hachureGap=4;jiggle=2;curveFitting=1;orthogonalLoop=1;jettySize=auto;html=1;exitX=1;exitY=0.5;exitDx=0;exitDy=0;entryX=1;entryY=0.5;entryDx=0;entryDy=0;fontFamily=Architects Daughter;fontSource=https%3A%2F%2Ffonts.googleapis.com%2Fcss%3Ffamily%3DArchitects%2BDaughter;fontSize=16;" parent="1" source="v9pG0wg58woj9QDLIAWf-14" target="v9pG0wg58woj9QDLIAWf-12" edge="1">
          <mxGeometry relative="1" as="geometry" />
        </mxCell>
        <mxCell id="v9pG0wg58woj9QDLIAWf-17" value="" style="verticalLabelPosition=bottom;verticalAlign=top;html=1;shape=mxgraph.basic.x;sketch=1;hachureGap=4;jiggle=2;curveFitting=1;fontFamily=Architects Daughter;fontSource=https%3A%2F%2Ffonts.googleapis.com%2Fcss%3Ffamily%3DArchitects%2BDaughter;fontSize=20;fillColor=#e3c800;strokeColor=#B09500;fontColor=#000000;" parent="1" vertex="1">
          <mxGeometry x="330" y="254.5" width="30" height="30" as="geometry" />
        </mxCell>
        <mxCell id="v9pG0wg58woj9QDLIAWf-18" value="3. div - logo" style="swimlane;fontStyle=0;childLayout=stackLayout;horizontal=1;startSize=30;horizontalStack=0;resizeParent=1;resizeParentMax=0;resizeLast=0;collapsible=1;marginBottom=0;whiteSpace=wrap;html=1;sketch=1;hachureGap=4;jiggle=2;curveFitting=1;fontFamily=Architects Daughter;fontSource=https%3A%2F%2Ffonts.googleapis.com%2Fcss%3Ffamily%3DArchitects%2BDaughter;fontSize=20;" parent="1" vertex="1" collapsed="1">
          <mxGeometry x="290" y="430" width="140" height="40" as="geometry">
            <mxRectangle x="290" y="430" width="160" height="70" as="alternateBounds" />
          </mxGeometry>
        </mxCell>
        <mxCell id="v9pG0wg58woj9QDLIAWf-19" value="pt-2" style="text;strokeColor=none;fillColor=none;align=left;verticalAlign=middle;spacingLeft=4;spacingRight=4;overflow=hidden;points=[[0,0.5],[1,0.5]];portConstraint=eastwest;rotatable=0;whiteSpace=wrap;html=1;fontSize=20;fontFamily=Architects Daughter;" parent="v9pG0wg58woj9QDLIAWf-18" vertex="1">
          <mxGeometry y="30" width="160" height="40" as="geometry" />
        </mxCell>
        <mxCell id="v9pG0wg58woj9QDLIAWf-20" style="edgeStyle=orthogonalEdgeStyle;rounded=0;sketch=1;hachureGap=4;jiggle=2;curveFitting=1;orthogonalLoop=1;jettySize=auto;html=1;exitX=0;exitY=0.5;exitDx=0;exitDy=0;entryX=0.5;entryY=0.71;entryDx=0;entryDy=0;entryPerimeter=0;fontFamily=Architects Daughter;fontSource=https%3A%2F%2Ffonts.googleapis.com%2Fcss%3Ffamily%3DArchitects%2BDaughter;fontSize=16;" parent="1" source="v9pG0wg58woj9QDLIAWf-19" target="v9pG0wg58woj9QDLIAWf-17" edge="1">
          <mxGeometry relative="1" as="geometry" />
        </mxCell>
        <mxCell id="v9pG0wg58woj9QDLIAWf-30" value="" style="group" parent="1" vertex="1" connectable="0">
          <mxGeometry x="760" y="30" width="160" height="140" as="geometry" />
        </mxCell>
        <mxCell id="v9pG0wg58woj9QDLIAWf-13" value="2. div - flex&amp;nbsp;" style="swimlane;fontStyle=0;childLayout=stackLayout;horizontal=1;startSize=30;horizontalStack=0;resizeParent=1;resizeParentMax=0;resizeLast=0;collapsible=1;marginBottom=0;whiteSpace=wrap;html=1;sketch=1;hachureGap=4;jiggle=2;curveFitting=1;fontFamily=Architects Daughter;fontSource=https%3A%2F%2Ffonts.googleapis.com%2Fcss%3Ffamily%3DArchitects%2BDaughter;fontSize=20;" parent="v9pG0wg58woj9QDLIAWf-30" vertex="1">
          <mxGeometry width="160" height="140" as="geometry">
            <mxRectangle x="740" y="20" width="240" height="40" as="alternateBounds" />
          </mxGeometry>
        </mxCell>
        <mxCell id="v9pG0wg58woj9QDLIAWf-14" value="&lt;span style=&quot;background-color: rgb(255, 255, 102);&quot;&gt;flex &lt;br&gt;items-center &lt;br&gt;justify-between&lt;/span&gt;" style="text;strokeColor=none;fillColor=none;align=left;verticalAlign=middle;spacingLeft=4;spacingRight=4;overflow=hidden;points=[[0,0.5],[1,0.5]];portConstraint=eastwest;rotatable=0;whiteSpace=wrap;html=1;fontSize=20;fontFamily=Architects Daughter;" parent="v9pG0wg58woj9QDLIAWf-13" vertex="1">
          <mxGeometry y="30" width="160" height="110" as="geometry" />
        </mxCell>
        <mxCell id="v9pG0wg58woj9QDLIAWf-28" value="" style="html=1;whiteSpace=wrap;shape=isoCube2;backgroundOutline=1;isoAngle=15;sketch=1;hachureGap=4;jiggle=2;curveFitting=1;fontFamily=Architects Daughter;fontSource=https%3A%2F%2Ffonts.googleapis.com%2Fcss%3Ffamily%3DArchitects%2BDaughter;fontSize=20;fillColor=#76608a;fontColor=#ffffff;strokeColor=#432D57;" parent="v9pG0wg58woj9QDLIAWf-30" vertex="1">
          <mxGeometry x="133" y="4" width="18.9" height="21" as="geometry" />
        </mxCell>
        <mxCell id="v9pG0wg58woj9QDLIAWf-32" value="" style="group" parent="1" vertex="1" connectable="0">
          <mxGeometry x="300" y="30" width="140" height="140" as="geometry" />
        </mxCell>
        <mxCell id="v9pG0wg58woj9QDLIAWf-7" value="1. nav" style="swimlane;fontStyle=0;childLayout=stackLayout;horizontal=1;startSize=30;horizontalStack=0;resizeParent=1;resizeParentMax=0;resizeLast=0;collapsible=1;marginBottom=0;whiteSpace=wrap;html=1;sketch=1;hachureGap=4;jiggle=2;curveFitting=1;fontFamily=Architects Daughter;fontSource=https%3A%2F%2Ffonts.googleapis.com%2Fcss%3Ffamily%3DArchitects%2BDaughter;fontSize=20;" parent="v9pG0wg58woj9QDLIAWf-32" vertex="1">
          <mxGeometry width="140" height="140" as="geometry" />
        </mxCell>
        <mxCell id="v9pG0wg58woj9QDLIAWf-9" value="&lt;span style=&quot;background-color: rgb(255, 255, 102);&quot;&gt;relative &lt;/span&gt;&lt;br&gt;&lt;span style=&quot;background-color: rgb(255, 255, 102);&quot;&gt;container &lt;/span&gt;&lt;br&gt;&lt;span style=&quot;background-color: rgb(255, 255, 102);&quot;&gt;mx-auto &lt;/span&gt;&lt;br&gt;p-6" style="text;strokeColor=none;fillColor=none;align=left;verticalAlign=middle;spacingLeft=4;spacingRight=4;overflow=hidden;points=[[0,0.5],[1,0.5]];portConstraint=eastwest;rotatable=0;whiteSpace=wrap;html=1;fontSize=20;fontFamily=Architects Daughter;" parent="v9pG0wg58woj9QDLIAWf-7" vertex="1">
          <mxGeometry y="30" width="140" height="110" as="geometry" />
        </mxCell>
        <mxCell id="v9pG0wg58woj9QDLIAWf-29" value="" style="html=1;whiteSpace=wrap;shape=isoCube2;backgroundOutline=1;isoAngle=15;sketch=1;hachureGap=4;jiggle=2;curveFitting=1;fontFamily=Architects Daughter;fontSource=https%3A%2F%2Ffonts.googleapis.com%2Fcss%3Ffamily%3DArchitects%2BDaughter;fontSize=20;fillColor=#76608a;fontColor=#ffffff;strokeColor=#432D57;" parent="v9pG0wg58woj9QDLIAWf-32" vertex="1">
          <mxGeometry x="97" y="4" width="18.9" height="21" as="geometry" />
        </mxCell>
        <mxCell id="v9pG0wg58woj9QDLIAWf-33" value="" style="group" parent="1" vertex="1" connectable="0">
          <mxGeometry x="540" y="252" width="160" height="36" as="geometry" />
        </mxCell>
        <mxCell id="v9pG0wg58woj9QDLIAWf-21" value="" style="rounded=0;whiteSpace=wrap;html=1;hachureGap=4;fontFamily=Architects Daughter;fontSource=https%3A%2F%2Ffonts.googleapis.com%2Fcss%3Ffamily%3DArchitects%2BDaughter;fontSize=20;fillColor=#647687;fontColor=#ffffff;strokeColor=#314354;" parent="v9pG0wg58woj9QDLIAWf-33" vertex="1">
          <mxGeometry width="160" height="36" as="geometry" />
        </mxCell>
        <mxCell id="v9pG0wg58woj9QDLIAWf-22" value="link" style="rounded=1;whiteSpace=wrap;html=1;sketch=1;hachureGap=4;jiggle=2;curveFitting=1;fontFamily=Architects Daughter;fontSource=https%3A%2F%2Ffonts.googleapis.com%2Fcss%3Ffamily%3DArchitects%2BDaughter;fontSize=20;" parent="v9pG0wg58woj9QDLIAWf-33" vertex="1">
          <mxGeometry x="10" y="3" width="40" height="30" as="geometry" />
        </mxCell>
        <mxCell id="v9pG0wg58woj9QDLIAWf-23" value="link" style="rounded=1;whiteSpace=wrap;html=1;sketch=1;hachureGap=4;jiggle=2;curveFitting=1;fontFamily=Architects Daughter;fontSource=https%3A%2F%2Ffonts.googleapis.com%2Fcss%3Ffamily%3DArchitects%2BDaughter;fontSize=20;" parent="v9pG0wg58woj9QDLIAWf-33" vertex="1">
          <mxGeometry x="60" y="3" width="40" height="30" as="geometry" />
        </mxCell>
        <mxCell id="v9pG0wg58woj9QDLIAWf-24" value="link" style="rounded=1;whiteSpace=wrap;html=1;sketch=1;hachureGap=4;jiggle=2;curveFitting=1;fontFamily=Architects Daughter;fontSource=https%3A%2F%2Ffonts.googleapis.com%2Fcss%3Ffamily%3DArchitects%2BDaughter;fontSize=20;" parent="v9pG0wg58woj9QDLIAWf-33" vertex="1">
          <mxGeometry x="110" y="3" width="40" height="30" as="geometry" />
        </mxCell>
        <mxCell id="v9pG0wg58woj9QDLIAWf-34" value="" style="group" parent="1" vertex="1" connectable="0">
          <mxGeometry x="540" y="411" width="160" height="110" as="geometry" />
        </mxCell>
        <mxCell id="v9pG0wg58woj9QDLIAWf-25" value="4. div - link" style="swimlane;fontStyle=0;childLayout=stackLayout;horizontal=1;startSize=30;horizontalStack=0;resizeParent=1;resizeParentMax=0;resizeLast=0;collapsible=1;marginBottom=0;whiteSpace=wrap;html=1;sketch=1;hachureGap=4;jiggle=2;curveFitting=1;fontFamily=Architects Daughter;fontSource=https%3A%2F%2Ffonts.googleapis.com%2Fcss%3Ffamily%3DArchitects%2BDaughter;fontSize=20;" parent="v9pG0wg58woj9QDLIAWf-34" vertex="1">
          <mxGeometry width="160" height="110" as="geometry">
            <mxRectangle x="540" y="340" width="140" height="40" as="alternateBounds" />
          </mxGeometry>
        </mxCell>
        <mxCell id="v9pG0wg58woj9QDLIAWf-26" value="&lt;span style=&quot;background-color: rgb(255, 181, 112);&quot;&gt;hidden &lt;/span&gt;&lt;br&gt;space-x-6 &lt;br&gt;&lt;span style=&quot;background-color: rgb(185, 224, 165);&quot;&gt;md:flex&lt;/span&gt;" style="text;strokeColor=none;fillColor=none;align=left;verticalAlign=middle;spacingLeft=4;spacingRight=4;overflow=hidden;points=[[0,0.5],[1,0.5]];portConstraint=eastwest;rotatable=0;whiteSpace=wrap;html=1;fontSize=20;fontFamily=Architects Daughter;" parent="v9pG0wg58woj9QDLIAWf-25" vertex="1">
          <mxGeometry y="30" width="160" height="80" as="geometry" />
        </mxCell>
        <mxCell id="v9pG0wg58woj9QDLIAWf-27" value="" style="html=1;whiteSpace=wrap;shape=isoCube2;backgroundOutline=1;isoAngle=15;sketch=1;hachureGap=4;jiggle=2;curveFitting=1;fontFamily=Architects Daughter;fontSource=https%3A%2F%2Ffonts.googleapis.com%2Fcss%3Ffamily%3DArchitects%2BDaughter;fontSize=20;fillColor=#76608a;fontColor=#ffffff;strokeColor=#432D57;" parent="v9pG0wg58woj9QDLIAWf-34" vertex="1">
          <mxGeometry x="133" y="4" width="18.9" height="21" as="geometry" />
        </mxCell>
        <mxCell id="v9pG0wg58woj9QDLIAWf-35" style="edgeStyle=orthogonalEdgeStyle;rounded=0;sketch=1;hachureGap=4;jiggle=2;curveFitting=1;orthogonalLoop=1;jettySize=auto;html=1;exitX=0;exitY=0.5;exitDx=0;exitDy=0;entryX=0;entryY=0.5;entryDx=0;entryDy=0;fontFamily=Architects Daughter;fontSource=https%3A%2F%2Ffonts.googleapis.com%2Fcss%3Ffamily%3DArchitects%2BDaughter;fontSize=16;" parent="1" source="v9pG0wg58woj9QDLIAWf-26" target="v9pG0wg58woj9QDLIAWf-21" edge="1">
          <mxGeometry relative="1" as="geometry" />
        </mxCell>
        <mxCell id="v9pG0wg58woj9QDLIAWf-40" style="edgeStyle=orthogonalEdgeStyle;rounded=0;sketch=1;hachureGap=4;jiggle=2;curveFitting=1;orthogonalLoop=1;jettySize=auto;html=1;fontFamily=Architects Daughter;fontSource=https%3A%2F%2Ffonts.googleapis.com%2Fcss%3Ffamily%3DArchitects%2BDaughter;fontSize=16;" parent="1" source="v9pG0wg58woj9QDLIAWf-37" target="v9pG0wg58woj9QDLIAWf-23" edge="1">
          <mxGeometry relative="1" as="geometry" />
        </mxCell>
        <mxCell id="v9pG0wg58woj9QDLIAWf-37" value="5. Link - link" style="swimlane;fontStyle=0;childLayout=stackLayout;horizontal=1;startSize=30;horizontalStack=0;resizeParent=1;resizeParentMax=0;resizeLast=0;collapsible=1;marginBottom=0;whiteSpace=wrap;html=1;sketch=1;hachureGap=4;jiggle=2;curveFitting=1;fontFamily=Architects Daughter;fontSource=https%3A%2F%2Ffonts.googleapis.com%2Fcss%3Ffamily%3DArchitects%2BDaughter;fontSize=20;points=[[0,0,0,0,0],[0,0.25,0,0,0],[0,0.5,0,0,0],[0,0.75,0,0,0],[0,1,0,0,0],[0.25,0,0,0,0],[0.25,1,0,0,0],[0.5,0,0,0,0],[0.5,1,0,0,0],[0.75,0,0,0,0],[0.75,1,0,0,0],[1,0,0,0,0],[1,0.25,0,0,0],[1,0.5,0,0,0],[1,0.75,0,0,0],[1,1,0,0,0]];" parent="1" vertex="1" collapsed="1">
          <mxGeometry x="536" y="339" width="170" height="40" as="geometry">
            <mxRectangle x="536" y="339" width="170" height="60" as="alternateBounds" />
          </mxGeometry>
        </mxCell>
        <mxCell id="v9pG0wg58woj9QDLIAWf-38" value="hover:text-white" style="text;strokeColor=none;fillColor=none;align=left;verticalAlign=middle;spacingLeft=4;spacingRight=4;overflow=hidden;points=[[0,0.5],[1,0.5]];portConstraint=eastwest;rotatable=0;whiteSpace=wrap;html=1;fontSize=20;fontFamily=Architects Daughter;" parent="v9pG0wg58woj9QDLIAWf-37" vertex="1">
          <mxGeometry y="30" width="170" height="30" as="geometry" />
        </mxCell>
        <mxCell id="v9pG0wg58woj9QDLIAWf-41" value="start" style="ellipse;whiteSpace=wrap;html=1;hachureGap=4;fontFamily=Architects Daughter;fontSource=https%3A%2F%2Ffonts.googleapis.com%2Fcss%3Ffamily%3DArchitects%2BDaughter;fontSize=20;fillColor=#fa6800;fontColor=#000000;strokeColor=#C73500;sketch=1;curveFitting=1;jiggle=2;" parent="1" vertex="1">
          <mxGeometry x="843" y="255" width="60" height="30" as="geometry" />
        </mxCell>
        <mxCell id="dz99NOGH4aD-8nIKo7Ok-7" value="" style="edgeStyle=orthogonalEdgeStyle;rounded=0;sketch=1;hachureGap=4;jiggle=2;curveFitting=1;orthogonalLoop=1;jettySize=auto;html=1;fontFamily=Architects Daughter;fontSource=https%3A%2F%2Ffonts.googleapis.com%2Fcss%3Ffamily%3DArchitects%2BDaughter;fontSize=16;" edge="1" parent="1" source="v9pG0wg58woj9QDLIAWf-43">
          <mxGeometry relative="1" as="geometry">
            <mxPoint x="1160" y="554" as="targetPoint" />
          </mxGeometry>
        </mxCell>
        <mxCell id="dz99NOGH4aD-8nIKo7Ok-8" value="&lt;span style=&quot;background-color: rgb(51, 51, 255);&quot;&gt;&lt;font color=&quot;#ffffff&quot;&gt;OR&lt;/font&gt;&lt;/span&gt;" style="edgeLabel;html=1;align=center;verticalAlign=middle;resizable=0;points=[];fontSize=20;fontFamily=Architects Daughter;labelBorderColor=none;" vertex="1" connectable="0" parent="dz99NOGH4aD-8nIKo7Ok-7">
          <mxGeometry x="-0.0875" y="-1" relative="1" as="geometry">
            <mxPoint as="offset" />
          </mxGeometry>
        </mxCell>
        <mxCell id="v9pG0wg58woj9QDLIAWf-43" value="6. link - button" style="swimlane;fontStyle=0;childLayout=stackLayout;horizontal=1;startSize=30;horizontalStack=0;resizeParent=1;resizeParentMax=0;resizeLast=0;collapsible=1;marginBottom=0;whiteSpace=wrap;html=1;sketch=1;hachureGap=4;jiggle=2;curveFitting=1;fontFamily=Architects Daughter;fontSource=https%3A%2F%2Ffonts.googleapis.com%2Fcss%3Ffamily%3DArchitects%2BDaughter;fontSize=20;" parent="1" vertex="1">
          <mxGeometry x="860" y="414" width="190" height="280" as="geometry">
            <mxRectangle x="540" y="340" width="140" height="40" as="alternateBounds" />
          </mxGeometry>
        </mxCell>
        <mxCell id="v9pG0wg58woj9QDLIAWf-44" value="&lt;div&gt;&lt;span style=&quot;background-color: rgb(255, 181, 112);&quot;&gt;hidden&lt;/span&gt;&amp;nbsp;&lt;/div&gt;&lt;div&gt;&lt;span style=&quot;background-color: initial;&quot;&gt;p-3&amp;nbsp;&lt;/span&gt;&lt;/div&gt;&lt;div&gt;px-6&amp;nbsp;&lt;/div&gt;&lt;div&gt;pt-2&amp;nbsp;&lt;/div&gt;&lt;div&gt;text-white&amp;nbsp;&lt;/div&gt;&lt;div&gt;bg-red-200&amp;nbsp;&lt;/div&gt;&lt;div&gt;rounded-full&amp;nbsp;&lt;/div&gt;&lt;div&gt;baseline&amp;nbsp;&lt;/div&gt;&lt;div&gt;hover:bg-red-900&lt;/div&gt;&lt;div&gt;&lt;span style=&quot;background-color: rgb(185, 224, 165);&quot;&gt;md:block&lt;/span&gt;&lt;/div&gt;" style="text;strokeColor=none;fillColor=none;align=left;verticalAlign=middle;spacingLeft=4;spacingRight=4;overflow=hidden;points=[[0,0.5],[1,0.5]];portConstraint=eastwest;rotatable=0;whiteSpace=wrap;html=1;fontSize=20;fontFamily=Architects Daughter;" parent="v9pG0wg58woj9QDLIAWf-43" vertex="1">
          <mxGeometry y="30" width="190" height="250" as="geometry" />
        </mxCell>
        <mxCell id="v9pG0wg58woj9QDLIAWf-46" style="edgeStyle=orthogonalEdgeStyle;rounded=0;sketch=1;hachureGap=4;jiggle=2;curveFitting=1;orthogonalLoop=1;jettySize=auto;html=1;exitX=0;exitY=0.5;exitDx=0;exitDy=0;entryX=0;entryY=0.5;entryDx=0;entryDy=0;fontFamily=Architects Daughter;fontSource=https%3A%2F%2Ffonts.googleapis.com%2Fcss%3Ffamily%3DArchitects%2BDaughter;fontSize=16;" parent="1" source="v9pG0wg58woj9QDLIAWf-44" target="v9pG0wg58woj9QDLIAWf-41" edge="1">
          <mxGeometry relative="1" as="geometry" />
        </mxCell>
        <object label="" id="v9pG0wg58woj9QDLIAWf-47">
          <mxCell style="rounded=0;whiteSpace=wrap;html=1;sketch=1;hachureGap=4;jiggle=2;curveFitting=1;fontFamily=Architects Daughter;fontSource=https%3A%2F%2Ffonts.googleapis.com%2Fcss%3Ffamily%3DArchitects%2BDaughter;fontSize=20;fillColor=#f8cecc;strokeColor=#b85450;" parent="1" vertex="1">
            <mxGeometry x="317.5" y="770" width="492.5" height="210" as="geometry" />
          </mxCell>
        </object>
        <object label="" id="v9pG0wg58woj9QDLIAWf-48">
          <mxCell style="rounded=0;whiteSpace=wrap;html=1;sketch=1;hachureGap=4;jiggle=2;curveFitting=1;fontFamily=Architects Daughter;fontSource=https%3A%2F%2Ffonts.googleapis.com%2Fcss%3Ffamily%3DArchitects%2BDaughter;fontSize=20;fillColor=#1ba1e2;strokeColor=#006EAF;fontColor=#ffffff;" parent="1" vertex="1">
            <mxGeometry x="325" y="777" width="475" height="45" as="geometry" />
          </mxCell>
        </object>
        <mxCell id="v9pG0wg58woj9QDLIAWf-49" value="" style="verticalLabelPosition=bottom;verticalAlign=top;html=1;shape=mxgraph.basic.x;sketch=1;hachureGap=4;jiggle=2;curveFitting=1;fontFamily=Architects Daughter;fontSource=https%3A%2F%2Ffonts.googleapis.com%2Fcss%3Ffamily%3DArchitects%2BDaughter;fontSize=20;fillColor=#e3c800;strokeColor=#B09500;fontColor=#000000;" parent="1" vertex="1">
          <mxGeometry x="337.5" y="784.5" width="30" height="30" as="geometry" />
        </mxCell>
        <mxCell id="v9pG0wg58woj9QDLIAWf-57" value="" style="shape=image;html=1;verticalAlign=top;verticalLabelPosition=bottom;labelBackgroundColor=#ffffff;imageAspect=0;aspect=fixed;image=https://cdn4.iconfinder.com/data/icons/evil-icons-user-interface/64/menu-128.png;sketch=1;hachureGap=4;jiggle=2;curveFitting=1;fontFamily=Architects Daughter;fontSource=https%3A%2F%2Ffonts.googleapis.com%2Fcss%3Ffamily%3DArchitects%2BDaughter;fontSize=20;" parent="1" vertex="1">
          <mxGeometry x="741" y="774.5" width="50" height="50" as="geometry" />
        </mxCell>
        <mxCell id="v9pG0wg58woj9QDLIAWf-61" value="" style="group" parent="1" vertex="1" connectable="0">
          <mxGeometry x="930" y="770" width="190" height="140" as="geometry" />
        </mxCell>
        <mxCell id="v9pG0wg58woj9QDLIAWf-58" value="7. button -&amp;nbsp;" style="swimlane;fontStyle=0;childLayout=stackLayout;horizontal=1;startSize=30;horizontalStack=0;resizeParent=1;resizeParentMax=0;resizeLast=0;collapsible=1;marginBottom=0;whiteSpace=wrap;html=1;sketch=1;hachureGap=4;jiggle=2;curveFitting=1;fontFamily=Architects Daughter;fontSource=https%3A%2F%2Ffonts.googleapis.com%2Fcss%3Ffamily%3DArchitects%2BDaughter;fontSize=20;" parent="v9pG0wg58woj9QDLIAWf-61" vertex="1">
          <mxGeometry width="190" height="140" as="geometry">
            <mxRectangle x="540" y="340" width="140" height="40" as="alternateBounds" />
          </mxGeometry>
        </mxCell>
        <mxCell id="v9pG0wg58woj9QDLIAWf-59" value="&lt;span style=&quot;background-color: rgb(185, 224, 165);&quot;&gt;block &lt;/span&gt;&lt;br&gt;&lt;span style=&quot;background-color: rgb(0, 255, 255);&quot;&gt;hamburger &lt;/span&gt;&lt;br&gt;&lt;span style=&quot;background-color: rgb(255, 181, 112);&quot;&gt;md:hidden &lt;/span&gt;&lt;br&gt;focus:outline-none" style="text;strokeColor=none;fillColor=none;align=left;verticalAlign=middle;spacingLeft=4;spacingRight=4;overflow=hidden;points=[[0,0.5],[1,0.5]];portConstraint=eastwest;rotatable=0;whiteSpace=wrap;html=1;fontSize=20;fontFamily=Architects Daughter;" parent="v9pG0wg58woj9QDLIAWf-58" vertex="1">
          <mxGeometry y="30" width="190" height="110" as="geometry" />
        </mxCell>
        <mxCell id="v9pG0wg58woj9QDLIAWf-60" value="" style="shape=image;html=1;verticalAlign=top;verticalLabelPosition=bottom;labelBackgroundColor=#ffffff;imageAspect=0;aspect=fixed;image=https://cdn4.iconfinder.com/data/icons/evil-icons-user-interface/64/menu-128.png;sketch=1;hachureGap=4;jiggle=2;curveFitting=1;fontFamily=Architects Daughter;fontSource=https%3A%2F%2Ffonts.googleapis.com%2Fcss%3Ffamily%3DArchitects%2BDaughter;fontSize=20;" parent="v9pG0wg58woj9QDLIAWf-61" vertex="1">
          <mxGeometry x="144" width="30" height="30" as="geometry" />
        </mxCell>
        <mxCell id="v9pG0wg58woj9QDLIAWf-71" style="edgeStyle=orthogonalEdgeStyle;rounded=0;sketch=1;hachureGap=4;jiggle=2;curveFitting=1;orthogonalLoop=1;jettySize=auto;html=1;exitX=0;exitY=0.5;exitDx=0;exitDy=0;entryX=1;entryY=0.5;entryDx=0;entryDy=0;fontFamily=Architects Daughter;fontSource=https%3A%2F%2Ffonts.googleapis.com%2Fcss%3Ffamily%3DArchitects%2BDaughter;fontSize=16;" parent="1" source="v9pG0wg58woj9QDLIAWf-59" target="v9pG0wg58woj9QDLIAWf-57" edge="1">
          <mxGeometry relative="1" as="geometry" />
        </mxCell>
        <mxCell id="v9pG0wg58woj9QDLIAWf-72" value="" style="rounded=0;whiteSpace=wrap;html=1;hachureGap=4;fontFamily=Architects Daughter;fontSource=https%3A%2F%2Ffonts.googleapis.com%2Fcss%3Ffamily%3DArchitects%2BDaughter;fontSize=20;fillColor=#647687;strokeColor=#314354;fontColor=#ffffff;sketch=1;curveFitting=1;jiggle=2;" parent="1" vertex="1">
          <mxGeometry x="325" y="822" width="475" height="148" as="geometry" />
        </mxCell>
        <mxCell id="v9pG0wg58woj9QDLIAWf-62" value="" style="rounded=0;whiteSpace=wrap;html=1;hachureGap=4;fontFamily=Architects Daughter;fontSource=https%3A%2F%2Ffonts.googleapis.com%2Fcss%3Ffamily%3DArchitects%2BDaughter;fontSize=20;fillColor=#647687;strokeColor=#314354;fontColor=#ffffff;" parent="1" vertex="1">
          <mxGeometry x="342" y="822" width="440" height="148" as="geometry" />
        </mxCell>
        <mxCell id="v9pG0wg58woj9QDLIAWf-68" value="link" style="rounded=1;whiteSpace=wrap;html=1;sketch=1;hachureGap=4;jiggle=2;curveFitting=1;fontFamily=Architects Daughter;fontSource=https%3A%2F%2Ffonts.googleapis.com%2Fcss%3Ffamily%3DArchitects%2BDaughter;fontSize=20;" parent="1" vertex="1">
          <mxGeometry x="408.25" y="840" width="307.5" height="30" as="geometry" />
        </mxCell>
        <mxCell id="v9pG0wg58woj9QDLIAWf-69" value="link" style="rounded=1;whiteSpace=wrap;html=1;sketch=1;hachureGap=4;jiggle=2;curveFitting=1;fontFamily=Architects Daughter;fontSource=https%3A%2F%2Ffonts.googleapis.com%2Fcss%3Ffamily%3DArchitects%2BDaughter;fontSize=20;" parent="1" vertex="1">
          <mxGeometry x="408.25" y="881" width="307.5" height="30" as="geometry" />
        </mxCell>
        <mxCell id="v9pG0wg58woj9QDLIAWf-70" value="link" style="rounded=1;whiteSpace=wrap;html=1;sketch=1;hachureGap=4;jiggle=2;curveFitting=1;fontFamily=Architects Daughter;fontSource=https%3A%2F%2Ffonts.googleapis.com%2Fcss%3Ffamily%3DArchitects%2BDaughter;fontSize=20;" parent="1" vertex="1">
          <mxGeometry x="410.75" y="920" width="307.5" height="30" as="geometry" />
        </mxCell>
        <mxCell id="v9pG0wg58woj9QDLIAWf-74" value="8. div - mobile menu&amp;nbsp;" style="swimlane;fontStyle=0;childLayout=stackLayout;horizontal=1;startSize=30;horizontalStack=0;resizeParent=1;resizeParentMax=0;resizeLast=0;collapsible=1;marginBottom=0;whiteSpace=wrap;html=1;sketch=1;hachureGap=4;jiggle=2;curveFitting=1;fontFamily=Architects Daughter;fontSource=https%3A%2F%2Ffonts.googleapis.com%2Fcss%3Ffamily%3DArchitects%2BDaughter;fontSize=20;" parent="1" vertex="1">
          <mxGeometry x="930" y="940" width="230" height="60" as="geometry">
            <mxRectangle x="540" y="340" width="140" height="40" as="alternateBounds" />
          </mxGeometry>
        </mxCell>
        <mxCell id="v9pG0wg58woj9QDLIAWf-75" value="&lt;span style=&quot;background-color: rgb(255, 181, 112);&quot;&gt;md:hidden&lt;/span&gt;" style="text;strokeColor=none;fillColor=none;align=left;verticalAlign=middle;spacingLeft=4;spacingRight=4;overflow=hidden;points=[[0,0.5],[1,0.5]];portConstraint=eastwest;rotatable=0;whiteSpace=wrap;html=1;fontSize=20;fontFamily=Architects Daughter;" parent="v9pG0wg58woj9QDLIAWf-74" vertex="1">
          <mxGeometry y="30" width="230" height="30" as="geometry" />
        </mxCell>
        <mxCell id="v9pG0wg58woj9QDLIAWf-77" style="edgeStyle=orthogonalEdgeStyle;rounded=0;sketch=1;hachureGap=4;jiggle=2;curveFitting=1;orthogonalLoop=1;jettySize=auto;html=1;exitX=0;exitY=0.5;exitDx=0;exitDy=0;entryX=1;entryY=0.5;entryDx=0;entryDy=0;fontFamily=Architects Daughter;fontSource=https%3A%2F%2Ffonts.googleapis.com%2Fcss%3Ffamily%3DArchitects%2BDaughter;fontSize=16;" parent="1" source="v9pG0wg58woj9QDLIAWf-75" target="v9pG0wg58woj9QDLIAWf-72" edge="1">
          <mxGeometry relative="1" as="geometry" />
        </mxCell>
        <mxCell id="v9pG0wg58woj9QDLIAWf-78" value="" style="html=1;whiteSpace=wrap;shape=isoCube2;backgroundOutline=1;isoAngle=15;sketch=1;hachureGap=4;jiggle=2;curveFitting=1;fontFamily=Architects Daughter;fontSource=https%3A%2F%2Ffonts.googleapis.com%2Fcss%3Ffamily%3DArchitects%2BDaughter;fontSize=20;fillColor=#76608a;fontColor=#ffffff;strokeColor=#432D57;" parent="1" vertex="1">
          <mxGeometry x="1135.1" y="945" width="18.9" height="21" as="geometry" />
        </mxCell>
        <mxCell id="v9pG0wg58woj9QDLIAWf-79" value="9. div - mobile menu&amp;nbsp;" style="swimlane;fontStyle=0;childLayout=stackLayout;horizontal=1;startSize=30;horizontalStack=0;resizeParent=1;resizeParentMax=0;resizeLast=0;collapsible=1;marginBottom=0;whiteSpace=wrap;html=1;sketch=1;hachureGap=4;jiggle=2;curveFitting=1;fontFamily=Architects Daughter;fontSource=https%3A%2F%2Ffonts.googleapis.com%2Fcss%3Ffamily%3DArchitects%2BDaughter;fontSize=20;" parent="1" vertex="1">
          <mxGeometry x="342" y="1130" width="230" height="430" as="geometry">
            <mxRectangle x="540" y="340" width="140" height="40" as="alternateBounds" />
          </mxGeometry>
        </mxCell>
        <mxCell id="v9pG0wg58woj9QDLIAWf-80" value="&lt;span style=&quot;background-color: rgb(255, 255, 102);&quot;&gt;absolute &lt;/span&gt;&lt;br&gt;&lt;span style=&quot;background-color: rgb(255, 255, 102);&quot;&gt;flex-col &lt;br&gt;items-center &lt;br&gt;&lt;/span&gt;&lt;span style=&quot;background-color: rgb(185, 224, 165);&quot;&gt;flex ---&amp;gt; isOpen?&lt;/span&gt;&lt;br&gt;&lt;span style=&quot;background-color: rgb(255, 181, 112);&quot;&gt;hidden ---&amp;gt; !isOpen?&lt;/span&gt;&lt;br&gt;self-end &lt;br&gt;py-8 &lt;br&gt;&lt;span style=&quot;background-color: rgb(255, 255, 102);&quot;&gt;mt-10 &lt;/span&gt;&lt;br&gt;space-y-6 &lt;br&gt;font-bold &lt;br&gt;bg-white &lt;br&gt;sm:w-auto &lt;br&gt;sm:self-center &lt;br&gt;&lt;span style=&quot;background-color: rgb(255, 255, 102);&quot;&gt;left-6 &lt;br&gt;right-6 &lt;/span&gt;&lt;br&gt;drop-shadow-md" style="text;strokeColor=none;fillColor=none;align=left;verticalAlign=middle;spacingLeft=4;spacingRight=4;overflow=hidden;points=[[0,0.5],[1,0.5]];portConstraint=eastwest;rotatable=0;whiteSpace=wrap;html=1;fontSize=20;fontFamily=Architects Daughter;" parent="v9pG0wg58woj9QDLIAWf-79" vertex="1">
          <mxGeometry y="30" width="230" height="400" as="geometry" />
        </mxCell>
        <mxCell id="dz99NOGH4aD-8nIKo7Ok-1" style="edgeStyle=orthogonalEdgeStyle;rounded=0;sketch=1;hachureGap=4;jiggle=2;curveFitting=1;orthogonalLoop=1;jettySize=auto;html=1;exitX=0;exitY=0.5;exitDx=0;exitDy=0;entryX=0;entryY=0.5;entryDx=0;entryDy=0;fontFamily=Architects Daughter;fontSource=https%3A%2F%2Ffonts.googleapis.com%2Fcss%3Ffamily%3DArchitects%2BDaughter;fontSize=16;" edge="1" parent="1" source="v9pG0wg58woj9QDLIAWf-80" target="v9pG0wg58woj9QDLIAWf-62">
          <mxGeometry relative="1" as="geometry" />
        </mxCell>
        <mxCell id="dz99NOGH4aD-8nIKo7Ok-2" value="10. Link - link&amp;nbsp;" style="swimlane;fontStyle=0;childLayout=stackLayout;horizontal=1;startSize=30;horizontalStack=0;resizeParent=1;resizeParentMax=0;resizeLast=0;collapsible=1;marginBottom=0;whiteSpace=wrap;html=1;sketch=1;hachureGap=4;jiggle=2;curveFitting=1;fontFamily=Architects Daughter;fontSource=https%3A%2F%2Ffonts.googleapis.com%2Fcss%3Ffamily%3DArchitects%2BDaughter;fontSize=20;" vertex="1" collapsed="1" parent="1">
          <mxGeometry x="408.25" y="1020" width="151.75" height="40" as="geometry">
            <mxRectangle x="408.25" y="1020" width="230" height="60" as="alternateBounds" />
          </mxGeometry>
        </mxCell>
        <mxCell id="dz99NOGH4aD-8nIKo7Ok-4" style="edgeStyle=orthogonalEdgeStyle;rounded=0;sketch=1;hachureGap=4;jiggle=2;curveFitting=1;orthogonalLoop=1;jettySize=auto;html=1;exitX=0;exitY=0.5;exitDx=0;exitDy=0;entryX=0;entryY=0.5;entryDx=0;entryDy=0;fontFamily=Architects Daughter;fontSource=https%3A%2F%2Ffonts.googleapis.com%2Fcss%3Ffamily%3DArchitects%2BDaughter;fontSize=16;" edge="1" parent="1" target="v9pG0wg58woj9QDLIAWf-70">
          <mxGeometry relative="1" as="geometry">
            <mxPoint x="408.2499999999998" y="1065" as="sourcePoint" />
            <Array as="points">
              <mxPoint x="408" y="1040" />
              <mxPoint x="390" y="1040" />
              <mxPoint x="390" y="1008" />
              <mxPoint x="391" y="1008" />
              <mxPoint x="391" y="935" />
            </Array>
          </mxGeometry>
        </mxCell>
        <mxCell id="dz99NOGH4aD-8nIKo7Ok-10" value="6.1 . DD&amp;nbsp;" style="swimlane;fontStyle=0;childLayout=stackLayout;horizontal=1;startSize=30;horizontalStack=0;resizeParent=1;resizeParentMax=0;resizeLast=0;collapsible=1;marginBottom=0;whiteSpace=wrap;html=1;sketch=1;hachureGap=4;jiggle=2;curveFitting=1;fontFamily=Architects Daughter;fontSource=https%3A%2F%2Ffonts.googleapis.com%2Fcss%3Ffamily%3DArchitects%2BDaughter;fontSize=20;" vertex="1" parent="1">
          <mxGeometry x="1550" y="403" width="150" height="110" as="geometry">
            <mxRectangle x="540" y="340" width="140" height="40" as="alternateBounds" />
          </mxGeometry>
        </mxCell>
        <mxCell id="dz99NOGH4aD-8nIKo7Ok-11" value="&lt;div&gt;&lt;span style=&quot;background-color: rgb(255, 181, 112);&quot;&gt;hidden&lt;/span&gt;&amp;nbsp;&lt;/div&gt;&lt;div&gt;&lt;span style=&quot;background-color: rgb(185, 224, 165);&quot;&gt;md:block&lt;/span&gt;&lt;/div&gt;&lt;div&gt;&lt;span style=&quot;background-color: rgb(255, 255, 102);&quot;&gt;relative&lt;/span&gt;&lt;/div&gt;" style="text;strokeColor=none;fillColor=none;align=left;verticalAlign=middle;spacingLeft=4;spacingRight=4;overflow=hidden;points=[[0,0.5],[1,0.5]];portConstraint=eastwest;rotatable=0;whiteSpace=wrap;html=1;fontSize=20;fontFamily=Architects Daughter;" vertex="1" parent="dz99NOGH4aD-8nIKo7Ok-10">
          <mxGeometry y="30" width="150" height="80" as="geometry" />
        </mxCell>
        <mxCell id="dz99NOGH4aD-8nIKo7Ok-16" value="" style="rounded=0;whiteSpace=wrap;html=1;sketch=1;hachureGap=4;jiggle=2;curveFitting=1;fontFamily=Architects Daughter;fontSource=https%3A%2F%2Ffonts.googleapis.com%2Fcss%3Ffamily%3DArchitects%2BDaughter;fontSize=20;fillColor=#f8cecc;strokeColor=#b85450;fillStyle=solid;" vertex="1" parent="1">
          <mxGeometry x="1220" y="530" width="100" height="59" as="geometry" />
        </mxCell>
        <mxCell id="dz99NOGH4aD-8nIKo7Ok-17" value="link" style="rounded=0;whiteSpace=wrap;html=1;sketch=1;hachureGap=4;jiggle=2;curveFitting=1;fontFamily=Architects Daughter;fontSource=https%3A%2F%2Ffonts.googleapis.com%2Fcss%3Ffamily%3DArchitects%2BDaughter;fontSize=20;fillColor=#dae8fc;align=right;strokeColor=#6c8ebf;fillStyle=solid;" vertex="1" parent="1">
          <mxGeometry x="1230" y="538" width="80" height="20" as="geometry" />
        </mxCell>
        <mxCell id="dz99NOGH4aD-8nIKo7Ok-18" value="link" style="rounded=0;whiteSpace=wrap;html=1;sketch=1;hachureGap=4;jiggle=2;curveFitting=1;fontFamily=Architects Daughter;fontSource=https%3A%2F%2Ffonts.googleapis.com%2Fcss%3Ffamily%3DArchitects%2BDaughter;fontSize=20;fillColor=#dae8fc;align=right;strokeColor=#6c8ebf;fillStyle=solid;" vertex="1" parent="1">
          <mxGeometry x="1230" y="564" width="80" height="20" as="geometry" />
        </mxCell>
        <mxCell id="dz99NOGH4aD-8nIKo7Ok-14" value="" style="ellipse;whiteSpace=wrap;html=1;aspect=fixed;sketch=1;hachureGap=4;jiggle=2;curveFitting=1;fontFamily=Architects Daughter;fontSource=https%3A%2F%2Ffonts.googleapis.com%2Fcss%3Ffamily%3DArchitects%2BDaughter;fontSize=20;" vertex="1" parent="1">
          <mxGeometry x="1280" y="481" width="40" height="40" as="geometry" />
        </mxCell>
        <mxCell id="dz99NOGH4aD-8nIKo7Ok-12" value="" style="shape=actor;whiteSpace=wrap;html=1;hachureGap=4;fontFamily=Architects Daughter;fontSource=https%3A%2F%2Ffonts.googleapis.com%2Fcss%3Ffamily%3DArchitects%2BDaughter;fontSize=20;fillColor=#000000;strokeColor=none;fillStyle=solid;fontColor=#ffffff;" vertex="1" parent="1">
          <mxGeometry x="1290" y="486" width="20" height="30" as="geometry" />
        </mxCell>
        <mxCell id="dz99NOGH4aD-8nIKo7Ok-20" value="" style="html=1;whiteSpace=wrap;shape=isoCube2;backgroundOutline=1;isoAngle=15;sketch=1;hachureGap=4;jiggle=2;curveFitting=1;fontFamily=Architects Daughter;fontSource=https%3A%2F%2Ffonts.googleapis.com%2Fcss%3Ffamily%3DArchitects%2BDaughter;fontSize=20;fillColor=#76608a;fontColor=#ffffff;strokeColor=#432D57;" vertex="1" parent="1">
          <mxGeometry x="1659" y="409" width="18.9" height="21" as="geometry" />
        </mxCell>
        <mxCell id="dz99NOGH4aD-8nIKo7Ok-21" style="edgeStyle=orthogonalEdgeStyle;rounded=0;sketch=1;hachureGap=4;jiggle=2;curveFitting=1;orthogonalLoop=1;jettySize=auto;html=1;exitX=0;exitY=0.5;exitDx=0;exitDy=0;fontFamily=Architects Daughter;fontSource=https%3A%2F%2Ffonts.googleapis.com%2Fcss%3Ffamily%3DArchitects%2BDaughter;fontSize=16;" edge="1" parent="1" source="dz99NOGH4aD-8nIKo7Ok-11">
          <mxGeometry relative="1" as="geometry">
            <mxPoint x="1330" y="473" as="targetPoint" />
            <Array as="points">
              <mxPoint x="1430" y="473" />
            </Array>
          </mxGeometry>
        </mxCell>
        <mxCell id="dz99NOGH4aD-8nIKo7Ok-23" value="6.3 . button - Backdrop&amp;nbsp;" style="swimlane;fontStyle=0;childLayout=stackLayout;horizontal=1;startSize=30;horizontalStack=0;resizeParent=1;resizeParentMax=0;resizeLast=0;collapsible=1;marginBottom=0;whiteSpace=wrap;html=1;sketch=1;hachureGap=4;jiggle=2;curveFitting=1;fontFamily=Architects Daughter;fontSource=https%3A%2F%2Ffonts.googleapis.com%2Fcss%3Ffamily%3DArchitects%2BDaughter;fontSize=20;" vertex="1" parent="1">
          <mxGeometry x="1330" y="110" width="270" height="250" as="geometry">
            <mxRectangle x="540" y="340" width="140" height="40" as="alternateBounds" />
          </mxGeometry>
        </mxCell>
        <mxCell id="dz99NOGH4aD-8nIKo7Ok-24" value="&lt;span style=&quot;background-color: rgb(255, 255, 102);&quot;&gt;fixed&lt;br&gt;inset-0 &lt;br&gt;h-full &lt;br&gt;w-full &lt;br&gt;bg-black &lt;br&gt;opacity-50 &lt;br&gt;cursor-default&lt;/span&gt;" style="text;strokeColor=none;fillColor=none;align=left;verticalAlign=middle;spacingLeft=4;spacingRight=4;overflow=hidden;points=[[0,0.5],[1,0.5]];portConstraint=eastwest;rotatable=0;whiteSpace=wrap;html=1;fontSize=20;fontFamily=Architects Daughter;" vertex="1" parent="dz99NOGH4aD-8nIKo7Ok-23">
          <mxGeometry y="30" width="270" height="180" as="geometry" />
        </mxCell>
        <mxCell id="dz99NOGH4aD-8nIKo7Ok-26" value="onClick" style="swimlane;fontStyle=0;childLayout=stackLayout;horizontal=1;startSize=30;horizontalStack=0;resizeParent=1;resizeParentMax=0;resizeLast=0;collapsible=1;marginBottom=0;whiteSpace=wrap;html=1;sketch=1;hachureGap=4;jiggle=2;curveFitting=1;fontFamily=Architects Daughter;fontSource=https%3A%2F%2Ffonts.googleapis.com%2Fcss%3Ffamily%3DArchitects%2BDaughter;fontSize=20;fillColor=#76608a;fontColor=#000000;strokeColor=#432D57;" vertex="1" collapsed="1" parent="dz99NOGH4aD-8nIKo7Ok-23">
          <mxGeometry y="210" width="270" height="40" as="geometry">
            <mxRectangle y="210" width="270" height="70" as="alternateBounds" />
          </mxGeometry>
        </mxCell>
        <mxCell id="dz99NOGH4aD-8nIKo7Ok-27" value="&lt;div style=&quot;color: rgb(212, 212, 212); background-color: rgb(30, 30, 30); font-family: Consolas, &amp;quot;Courier New&amp;quot;, monospace; font-size: 14px; line-height: 19px;&quot;&gt;onClick=&lt;span style=&quot;color: #569cd6;&quot;&gt;{&lt;/span&gt;()&lt;span style=&quot;color: #569cd6;&quot;&gt;=&amp;gt;&lt;/span&gt;&lt;span style=&quot;color: #dcdcaa;&quot;&gt;setIsOpen&lt;/span&gt;(&lt;span style=&quot;color: #569cd6;&quot;&gt;false&lt;/span&gt;)&lt;/div&gt;" style="text;strokeColor=none;fillColor=none;align=left;verticalAlign=middle;spacingLeft=4;spacingRight=4;overflow=hidden;points=[[0,0.5],[1,0.5]];portConstraint=eastwest;rotatable=0;whiteSpace=wrap;html=1;fontSize=20;fontFamily=Architects Daughter;" vertex="1" parent="dz99NOGH4aD-8nIKo7Ok-26">
          <mxGeometry y="30" width="270" height="40" as="geometry" />
        </mxCell>
        <mxCell id="dz99NOGH4aD-8nIKo7Ok-25" style="edgeStyle=orthogonalEdgeStyle;rounded=0;sketch=1;hachureGap=4;jiggle=2;curveFitting=1;orthogonalLoop=1;jettySize=auto;html=1;exitX=0;exitY=0.5;exitDx=0;exitDy=0;entryX=0.535;entryY=-0.014;entryDx=0;entryDy=0;entryPerimeter=0;fontFamily=Architects Daughter;fontSource=https%3A%2F%2Ffonts.googleapis.com%2Fcss%3Ffamily%3DArchitects%2BDaughter;fontSize=16;" edge="1" parent="1" source="dz99NOGH4aD-8nIKo7Ok-24" target="dz99NOGH4aD-8nIKo7Ok-22">
          <mxGeometry relative="1" as="geometry" />
        </mxCell>
        <mxCell id="dz99NOGH4aD-8nIKo7Ok-28" value="6.2 . DD btn&amp;nbsp;" style="swimlane;fontStyle=0;childLayout=stackLayout;horizontal=1;startSize=30;horizontalStack=0;resizeParent=1;resizeParentMax=0;resizeLast=0;collapsible=1;marginBottom=0;whiteSpace=wrap;html=1;sketch=1;hachureGap=4;jiggle=2;curveFitting=1;fontFamily=Architects Daughter;fontSource=https%3A%2F%2Ffonts.googleapis.com%2Fcss%3Ffamily%3DArchitects%2BDaughter;fontSize=20;" vertex="1" parent="1">
          <mxGeometry x="1550" y="558" width="150" height="60" as="geometry">
            <mxRectangle x="540" y="340" width="140" height="40" as="alternateBounds" />
          </mxGeometry>
        </mxCell>
        <mxCell id="dz99NOGH4aD-8nIKo7Ok-29" value="relative" style="text;strokeColor=none;fillColor=none;align=left;verticalAlign=middle;spacingLeft=4;spacingRight=4;overflow=hidden;points=[[0,0.5],[1,0.5]];portConstraint=eastwest;rotatable=0;whiteSpace=wrap;html=1;fontSize=20;fontFamily=Architects Daughter;" vertex="1" parent="dz99NOGH4aD-8nIKo7Ok-28">
          <mxGeometry y="30" width="150" height="30" as="geometry" />
        </mxCell>
        <mxCell id="dz99NOGH4aD-8nIKo7Ok-30" style="edgeStyle=orthogonalEdgeStyle;rounded=0;sketch=1;hachureGap=4;jiggle=2;curveFitting=1;orthogonalLoop=1;jettySize=auto;html=1;exitX=0;exitY=0.5;exitDx=0;exitDy=0;entryX=1;entryY=0.5;entryDx=0;entryDy=0;fontFamily=Architects Daughter;fontSource=https%3A%2F%2Ffonts.googleapis.com%2Fcss%3Ffamily%3DArchitects%2BDaughter;fontSize=16;" edge="1" parent="1" source="dz99NOGH4aD-8nIKo7Ok-29" target="dz99NOGH4aD-8nIKo7Ok-14">
          <mxGeometry relative="1" as="geometry" />
        </mxCell>
      </root>
    </mxGraphModel>
  </diagram>
</mxfile>
